<svg width="15" height="15" viewBox="0 0 15 15" fill="none" xmlns="http://www.w3.org/2000/svg">
<circle cx="7.33325" cy="7.33334" r="7" fill="#262626"/>
<path d="M7.5 0C3.36437 0 0 3.36437 0 7.5C0 11.6356 3.36437 15 7.5 15C11.6356 15 15 11.6356 15 7.5C15 3.36437 11.6356 0 7.5 0ZM7.5 1.25C10.9594 1.25 13.75 4.04063 13.75 7.5C13.75 10.9594 10.9594 13.75 7.5 13.75C4.04063 13.75 1.25 10.9594 1.25 7.5C1.25 4.04063 4.04063 1.25 7.5 1.25ZM10.9569 3.16437L9.76562 4.33563L10.6644 5.23438L11.8362 4.04312L10.9569 3.16437ZM7.5 4.375C5.78125 4.375 4.375 5.78125 4.375 7.5C4.375 9.21875 5.78125 10.625 7.5 10.625C9.21875 10.625 10.625 9.21875 10.625 7.5C10.625 5.78125 9.21875 4.375 7.5 4.375ZM7.5 5.625C8.5425 5.625 9.375 6.4575 9.375 7.5C9.375 8.5425 8.5425 9.375 7.5 9.375C6.4575 9.375 5.625 8.5425 5.625 7.5C5.625 6.4575 6.4575 5.625 7.5 5.625ZM7.5 6.875C7.15625 6.875 6.875 7.15625 6.875 7.5C6.875 7.84375 7.15625 8.125 7.5 8.125C7.84375 8.125 8.125 7.84375 8.125 7.5C8.125 7.15625 7.84375 6.875 7.5 6.875ZM4.33563 9.76562L3.16437 10.9569L4.04312 11.8362L5.23438 10.6644L4.33563 9.76562Z" fill="white"/>
</svg>
