<svg width="24" height="24" viewBox="0 0 15 15" fill="none" xmlns="http://www.w3.org/2000/svg">
<path d="M1.689 6C1.56312 6.49005 1.49961 6.99404 1.5 7.5C1.5 8.0175 1.566 8.52 1.689 9H3.825C3.72388 8.00256 3.72388 6.99744 3.825 6H1.689ZM2.3025 4.5H4.062C4.2615 3.58725 4.5495 2.76975 4.90275 2.0895C3.81388 2.61406 2.90791 3.45393 2.3025 4.5V4.5ZM13.311 6H11.175C11.2761 6.99744 11.2761 8.00256 11.175 9H13.311C13.5635 8.01594 13.5635 6.98406 13.311 6V6ZM12.6975 4.5C12.0921 3.45393 11.1861 2.61406 10.0973 2.0895C10.4513 2.76975 10.7385 3.58725 10.938 4.5H12.6975ZM5.334 6C5.27781 6.49802 5.24976 6.99882 5.25 7.5C5.25 8.01375 5.2785 8.51625 5.334 9H9.666C9.77895 8.00319 9.77895 6.99681 9.666 6H5.334ZM5.6025 4.5H9.3975C9.26101 3.93622 9.06412 3.38881 8.81025 2.86725C8.33925 1.926 7.83525 1.5 7.5 1.5C7.164 1.5 6.66075 1.926 6.18975 2.86725C5.9535 3.34125 5.75475 3.8925 5.6025 4.5ZM2.3025 10.5C2.90791 11.5461 3.81388 12.3859 4.90275 12.9105C4.54875 12.2303 4.2615 11.4128 4.062 10.5H2.3025V10.5ZM12.6975 10.5H10.938C10.7385 11.4128 10.4505 12.2303 10.0973 12.9105C11.1861 12.3859 12.0921 11.5461 12.6975 10.5ZM5.6025 10.5C5.75475 11.1075 5.9535 11.6588 6.18975 12.1328C6.66075 13.074 7.16475 13.5 7.5 13.5C7.836 13.5 8.33925 13.074 8.81025 12.1328C9.0465 11.6588 9.24525 11.1075 9.3975 10.5H5.6025V10.5ZM7.5 15C3.35775 15 0 11.6422 0 7.5C0 3.35775 3.35775 0 7.5 0C11.6422 0 15 3.35775 15 7.5C15 11.6422 11.6422 15 7.5 15Z" fill="black"/>
</svg>
