<svg width="25" height="24" viewBox="0 0 15 14" fill="none" xmlns="http://www.w3.org/2000/svg">
<path d="M13.8719 6.57772L7.43594 0.146472C7.3896 0.10004 7.33455 0.0632039 7.27396 0.0380704C7.21337 0.012937 7.14841 0 7.08281 0C7.01721 0 6.95226 0.012937 6.89166 0.0380704C6.83107 0.0632039 6.77603 0.10004 6.72969 0.146472L0.29375 6.57772C0.10625 6.76522 0 7.01991 0 7.28553C0 7.8371 0.448437 8.28553 1 8.28553H1.67813V12.8746C1.67813 13.1512 1.90156 13.3746 2.17813 13.3746H6.08281V9.8746H7.83281V13.3746H11.9875C12.2641 13.3746 12.4875 13.1512 12.4875 12.8746V8.28553H13.1656C13.4312 8.28553 13.6859 8.18085 13.8734 7.99178C14.2625 7.60116 14.2625 6.96835 13.8719 6.57772V6.57772Z" fill="white"/>
</svg>
