<svg width="24" height="24" viewBox="0 0 15 15" fill="none" xmlns="http://www.w3.org/2000/svg">
<path d="M1.35 0C0.603 0 0 0.603 0 1.3482V13.0311C0 13.7763 0.6039 14.3793 1.35 14.3793H2.25C2.9943 14.3793 3.5991 13.7763 3.5991 13.0311V1.3482C3.5991 0.603 2.9943 0 2.2491 0H1.3491H1.35ZM5.8482 0C5.103 0 4.4982 0.603 4.4982 1.3482V13.0311C4.4982 13.7763 5.103 14.3793 5.8482 14.3793H6.7482C7.4934 14.3793 8.0973 13.7763 8.0973 13.0311V1.3482C8.0973 0.6039 7.4934 0 6.7473 0H5.8473H5.8482ZM12.3462 3.7413C12.3051 3.56314 12.2282 3.39519 12.1202 3.24763C12.0122 3.10008 11.8754 2.976 11.718 2.88292C11.5606 2.78983 11.386 2.72969 11.2047 2.70614C11.0234 2.68259 10.8391 2.69611 10.6632 2.7459L9.9927 2.9349C9.66513 3.02751 9.38472 3.24061 9.20776 3.53142C9.03081 3.82223 8.97041 4.16921 9.0387 4.5027L10.8414 13.3218C10.8782 13.5006 10.9509 13.67 11.0551 13.8198C11.1592 13.9697 11.2927 14.0969 11.4474 14.1937C11.6021 14.2906 11.7748 14.355 11.9552 14.3832C12.1355 14.4114 12.3196 14.4027 12.4965 14.3577L13.383 14.1327C14.094 13.9527 14.5296 13.2381 14.3658 12.5244L12.3462 3.7404V3.7413Z" fill="white"/>
</svg>
