<svg width="24" height="24" viewBox="0 0 14 14" fill="none" xmlns="http://www.w3.org/2000/svg">
<path d="M9.01772 8.14304L8.74838 8.49124L9.05966 8.80252L13.352 13.0949L13.0937 13.3527L8.8007 9.06134L8.4898 8.75056L8.14177 9.0191C7.31789 9.6548 6.3124 9.99995 5.24998 9.99995C3.97904 9.99995 2.78867 9.50661 1.89211 8.60847L1.8918 8.60816C0.994897 7.71126 0.5 6.51887 0.5 5.24998C0.5 3.97904 0.99334 2.78867 1.89148 1.89211L1.8918 1.8918C2.7887 0.994897 3.98108 0.5 5.24998 0.5C6.51925 0.5 7.71135 0.993403 8.60785 1.89148C9.50529 2.79051 9.99995 3.97968 9.99995 5.24998C9.99995 6.31253 9.65473 7.31951 9.01772 8.14304ZM12.8418 13.604C12.8418 13.6039 12.8419 13.6039 12.8419 13.6039L12.8418 13.604ZM13.8566 13.0951L13.9579 12.9937L13.8566 13.0951L13.8566 13.0951ZM13.8565 13.0952L13.8565 13.0952L13.6045 13.3474C13.6045 13.3473 13.6044 13.3473 13.6044 13.3472L13.8564 13.0952L13.8564 13.0952L13.8565 13.0952L13.8565 13.0952ZM8.3751 8.37594L8.37552 8.37552C9.2096 7.54144 9.66996 6.42899 9.66996 5.24998C9.66996 4.07062 9.20938 2.96026 8.37594 2.12485C7.54132 1.28826 6.42848 0.829994 5.24998 0.829994C4.07062 0.829994 2.96026 1.29058 2.12485 2.12402L2.12444 2.12444C1.29036 2.95851 0.829994 4.07096 0.829994 5.24998C0.829994 6.42933 1.29058 7.53969 2.12402 8.3751L2.12485 8.37594C2.96026 9.20938 4.07062 9.66996 5.24998 9.66996C6.42933 9.66996 7.53969 9.20938 8.3751 8.37594Z" fill="white" stroke="white"/>
</svg>
